<?xml version="1.0" encoding="UTF-8"?><svg id="a" xmlns="http://www.w3.org/2000/svg" viewBox="0 0 504 144"><defs><style>.b{fill:#fff;}</style></defs><g><polygon class="b" points="147.43864 49.44503 78.78323 49.42298 54.50264 63.0048 123.15805 63.02683 147.43864 49.44503"/><polygon class="b" points="147.5694 80.31918 78.91399 80.29714 54.6334 93.87896 123.28881 93.90099 147.5694 80.31918"/><polygon class="b" points="123.46517 25.13074 123.48726 93.78615 109.90546 118.06675 109.88338 49.41134 123.46517 25.13074"/><polygon class="b" points="92.29732 25 92.31941 93.65541 78.73761 117.93601 78.71553 49.2806 92.29732 25"/></g><g><path class="b" d="M195.83691,43.14258c0-.47949,.08008-.63965,.56055-.71973,3.04004-.16016,10.87988-.32031,19.04004-.32031,23.28027,0,34.40137,12.96094,34.40137,31.04102,0,23.28027-17.76074,33.04102-34.00098,33.04102-6.56055,0-16.40039,0-19.44043-.16016-.40039,0-.56055-.32031-.56055-1.04004V43.14258Zm14.24023,50.56152c1.84082,.08008,3.12012,.16016,5.2002,.16016,12.00098,0,19.84082-7.60059,19.9209-20.48047,0-12.7207-8-18.88086-19.76074-18.88086-2.16016,0-3.43945,.08008-5.36035,.16016v39.04102Z"/><path class="b" d="M281.90527,91.7041c2-8.08008,6.7207-25.44043,13.84082-48.56152,.16016-.63965,.39941-.87988,.95996-.87988h12.95996c.48047,0,.87988,.32031,.63965,1.04004l-21.2002,62.00195c-.24023,.63965-.55957,.71973-1.12012,.71973h-13.75977c-.56055,0-.87988-.08008-1.12012-.71973l-21.9209-62.00195c-.16016-.55957,0-1.04004,.7207-1.04004h13.67969c.56055,0,.7998,.24023,.87988,.7207,7.68066,22.63965,13.28027,40.88086,15.12109,48.7207h.31934Z"/><path class="b" d="M371.40039,73.7832c.08008,19.76074-12.08008,33.20117-30.24121,33.20117-18.87988,0-30.16016-13.76074-30.16016-32.88086,0-18.16016,12-32.7207,30.32031-32.7207,19.28027,0,30.00098,14.56055,30.08105,32.40039Zm-29.76074,20.64062c9.44043,0,15.12012-8,15.04004-20.24023-.08008-12.7998-5.59961-20.24023-15.52051-20.24023-9.28027,0-15.36035,7.28027-15.36035,20.16016,0,11.60059,5.60059,20.32031,15.84082,20.32031Z"/><path class="b" d="M381.33008,43.14258c0-.47949,.08008-.71973,.56055-.71973,4.24023-.16016,11.91992-.32031,19.28027-.32031,19.84082,0,26.56055,11.04102,26.56055,21.68066,0,15.76074-12.24023,22.48047-27.2002,22.48047h-5.04004v18.96094c0,.47949-.24023,.7998-.80078,.7998h-12.63965c-.48047,0-.7207-.32031-.7207-.7998V43.14258Zm14.16113,30.56152c1.67969,.0791,2.63965,.0791,5.04004,.0791,7.28027,0,13.04004-2.15918,13.04004-9.83984,0-5.67969-3.68066-9.44043-11.91992-9.44043-2.88086,0-5.36035,.08008-6.16016,.16016v19.04102Z"/></g></svg>