<svg id="Logos" xmlns="http://www.w3.org/2000/svg" viewBox="0 0 504 144"><defs><style>.cls-1{fill:#202124;}.cls-2{fill:#fff;}</style></defs><path class="cls-1" d="M203.58,79.44c-.72-.08-.88-.32-.88-1V67.92c0-.64.24-.72.72-.72h22.4c.8,0,.88.24.88.8v32.48c.08.64-.08.88-.72,1.12a61.31,61.31,0,0,1-19.6,3.2c-23,0-34-14.64-34-32.32,0-20.32,14.32-33.28,36.24-33.28,6.32,0,12,.64,15.52,2.16.48.16.64.56.64,1.36v11.2c0,.72-.32.88-.8.56-4.32-2-9-2.64-15-2.72-14.8-.16-21.85,7.52-21.85,20.24,0,11.76,6.89,20.32,19.93,20.32a19,19,0,0,0,5.36-.48V79.92Z"/><path class="cls-1" d="M246.06,55.12c.72,0,1,.32,1.28.88a17.06,17.06,0,0,1,1,5.28,20.3,20.3,0,0,1,15.36-7c.56,0,.8.16.8.8V67.68c0,.48-.24.72-.88.72-7-.32-12.48,1.52-14.56,3.68v31c0,.56-.32.8-.88.8h-12.4c-.72,0-1-.32-1-.88V69.28c0-4.4-.08-9.92-.48-13.44,0-.48.16-.72.64-.72Z"/><path class="cls-1" d="M314.3,79.2c0,15.44-9.76,25.6-23.84,25.6-16.56,0-23.84-12.48-23.84-25.28,0-13.84,9-25.28,24.08-25.28C306.38,54.24,314.3,66.08,314.3,79.2Zm-33.36.16c0,8.32,3.68,13.52,9.76,13.52,5.36,0,9.12-4.8,9.12-13.36,0-7.52-2.88-13.36-9.6-13.36C284.94,66.16,280.94,70.8,280.94,79.36Z"/><path class="cls-1" d="M366.38,79.2c0,15.44-9.76,25.6-23.84,25.6-16.56,0-23.84-12.48-23.84-25.28,0-13.84,9-25.28,24.08-25.28C358.46,54.24,366.38,66.08,366.38,79.2ZM333,79.36c0,8.32,3.68,13.52,9.76,13.52,5.36,0,9.12-4.8,9.12-13.36,0-7.52-2.88-13.36-9.6-13.36C337,66.16,333,70.8,333,79.36Z"/><path class="cls-1" d="M382.55,103.84a1.15,1.15,0,0,1-1.12-.64c-4-11.92-11.52-35.28-15.6-47.2-.08-.48.08-.88.72-.88h13.52c.64,0,.8.24,1,.8,6.08,21.68,7.92,29.84,8.8,34.32h.24c1-4.48,3.2-12.72,9.6-34.4.24-.48.56-.72.88-.72h12.08c.32,0,.72.32.56,1-4.32,12.16-11.84,35.68-15.92,47-.32.48-.56.8-1.2.8Z"/><path class="cls-1" d="M427,83.44c.56,5,4.32,9.28,13.44,9.28a31.08,31.08,0,0,0,11.76-2.16c.32-.16.56-.08.56.48v9.76c0,.8-.16,1-.64,1.28-3.92,1.76-8.16,2.72-14.88,2.72-18.24,0-24.72-12.48-24.72-24.72,0-13.52,8.08-25.84,23.6-25.84,14.72,0,20.48,11.28,20.48,21.2a32.7,32.7,0,0,1-.48,6.8.86.86,0,0,1-.8.8,97.12,97.12,0,0,1-9.92.4Zm11.68-10.08a34,34,0,0,0,4.48-.16,2,2,0,0,0,.08-.64,7.41,7.41,0,0,0-7.76-7.12c-5.68,0-8,4.32-8.48,7.92Z"/><circle class="cls-1" cx="97.86" cy="72" r="49.14"/><circle class="cls-2" cx="97.86" cy="72" r="18.77"/><circle class="cls-1" cx="97.86" cy="72" r="4.43"/></svg>